# xmcd
#
# Track frame offsets:
#	750
#	22358
#	35788
#	51818
#	74463
#	88550
#	101175
#	117275
#	136313
#	148530
#	165503
#	180830
#	198848
#	211213
#	227500
#	246025
#	256963
#	282863
#	290363
#
# Disc length: 3879 seconds
#
# Revision: 3
# Processed by: cddbd v1.5.1PL0 Copyright (c) Steve Scherf et al.
# Submitted via: audiograbber 1.83.01
#
DISCID=120f1d13
DTITLE=Heino - Das Beste zum Jubilaeum 1v2
DYEAR=2004
DGENRE=Volksmusik
TTITLE0=Hit-Medley
TTITLE1=Das Leben hat's im Leben gut mit mir gemeint
TTITLE2=Adler flieg hinaus
TTITLE3=Viva-Medley
TTITLE4=Auf in den Kampf Torero
TTITLE5=Schlesierlied
TTITLE6=Alte Kameraden
TTITLE7=Eine Träne von ihr
TTITLE8=Tausend Dankeschoen
TTITLE9=Wie ein Vogel im Wind
TTITLE10=Wilde Schwäne
TTITLE11=Montana Blue
TTITLE12=Glueck auf, der Steiger kommt
TTITLE13=Salz auf den Lippen
TTITLE14=Spiel diese Lied fuer mich
TTITLE15=Hawaii Wedding Song
TTITLE16=Sierra Madre del sur
TTITLE17=Daten-CD
TTITLE18=Daten-CD
EXTD=
EXTT0=
EXTT1=
EXTT2=
EXTT3=
EXTT4=
EXTT5=
EXTT6=
EXTT7=
EXTT8=
EXTT9=
EXTT10=
EXTT11=
EXTT12=
EXTT13=
EXTT14=
EXTT15=
EXTT16=
EXTT17=
EXTT18=
PLAYORDER=
